<?xml version="1.0" encoding="UTF-8" standalone="no"?>
<!DOCTYPE svg PUBLIC "-//W3C//DTD SVG 1.1//EN"
 "http://www.w3.org/Graphics/SVG/1.1/DTD/svg11.dtd">
<!-- Generated by graphviz version 2.47.0 (20210316.0004)
 -->
<!-- Title: dependencies Pages: 1 -->
<svg width="519pt" height="211pt"
 viewBox="0.00 0.00 519.00 211.00" xmlns="http://www.w3.org/2000/svg" xmlns:xlink="http://www.w3.org/1999/xlink">
<g id="graph0" class="graph" transform="scale(1 1) rotate(0) translate(4 207)">
<title>dependencies</title>
<polygon fill="white" stroke="transparent" points="-4,4 -4,-207 515,-207 515,4 -4,4"/>
<text text-anchor="start" x="234.51" y="-42.4" font-family="Times-12" font-weight="bold" font-size="14.00">Legend</text>
<polygon fill="#ffffb3" stroke="transparent" points="21.5,-10 21.5,-30 41.5,-30 41.5,-10 21.5,-10"/>
<text text-anchor="start" x="45.13" y="-15.4" font-family="Times-12" font-size="14.00"> &#160;Declarations</text>
<polygon fill="#8dd3c7" stroke="transparent" points="134.5,-10 134.5,-30 154.5,-30 154.5,-10 134.5,-10"/>
<text text-anchor="start" x="158.23" y="-15.4" font-family="Times-12" font-size="14.00"> &#160;Module</text>
<polygon fill="#80b1d3" stroke="transparent" points="220.5,-10 220.5,-30 240.5,-30 240.5,-10 220.5,-10"/>
<text text-anchor="start" x="244.28" y="-15.4" font-family="Times-12" font-size="14.00"> &#160;Bootstrap</text>
<polygon fill="#fdb462" stroke="transparent" points="317.5,-10 317.5,-30 337.5,-30 337.5,-10 317.5,-10"/>
<text text-anchor="start" x="341.17" y="-15.4" font-family="Times-12" font-size="14.00"> &#160;Providers</text>
<polygon fill="#fb8072" stroke="transparent" points="413.5,-10 413.5,-30 433.5,-30 433.5,-10 413.5,-10"/>
<text text-anchor="start" x="437.23" y="-15.4" font-family="Times-12" font-size="14.00"> &#160;Exports</text>
<g id="clust1" class="cluster">
<title>cluster_FertilizerUnitModule</title>
<polygon fill="none" stroke="black" stroke-dasharray="1,5" points="8,-70 8,-195 503,-195 503,-70 8,-70"/>
</g>
<g id="clust3" class="cluster">
<title>cluster_FertilizerUnitModule_imports</title>
<polygon fill="none" stroke="black" points="369,-78 369,-130 495,-130 495,-78 369,-78"/>
</g>
<g id="clust6" class="cluster">
<title>cluster_FertilizerUnitModule_providers</title>
<polygon fill="none" stroke="black" points="16,-78 16,-130 361,-130 361,-78 16,-78"/>
</g>
<!-- SchemasModule -->
<g id="node1" class="node">
<title>SchemasModule</title>
<polygon fill="#8dd3c7" stroke="black" points="486.81,-122 483.81,-126 462.81,-126 459.81,-122 377.19,-122 377.19,-86 486.81,-86 486.81,-122"/>
<text text-anchor="middle" x="432" y="-99.8" font-family="Times,serif" font-size="14.00">SchemasModule</text>
</g>
<!-- FertilizerUnitModule -->
<g id="node2" class="node">
<title>FertilizerUnitModule</title>
<polygon fill="#8dd3c7" stroke="black" points="327.75,-187 324.75,-191 303.75,-191 300.75,-187 192.25,-187 192.25,-151 327.75,-151 327.75,-187"/>
<text text-anchor="middle" x="260" y="-164.8" font-family="Times,serif" font-size="14.00">FertilizerUnitModule</text>
</g>
<!-- SchemasModule&#45;&gt;FertilizerUnitModule -->
<g id="edge1" class="edge">
<title>SchemasModule&#45;&gt;FertilizerUnitModule</title>
<path fill="none" stroke="black" d="M432,-122.11C432,-141.34 432,-169 432,-169 432,-169 337.98,-169 337.98,-169"/>
<polygon fill="black" stroke="black" points="337.98,-165.5 327.98,-169 337.98,-172.5 337.98,-165.5"/>
</g>
<!-- FertilizerUnitService -->
<g id="node3" class="node">
<title>FertilizerUnitService</title>
<ellipse fill="#fdb462" stroke="black" cx="260" cy="-104" rx="92.6" ry="18"/>
<text text-anchor="middle" x="260" y="-99.8" font-family="Times,serif" font-size="14.00">FertilizerUnitService</text>
</g>
<!-- FertilizerUnitService&#45;&gt;FertilizerUnitModule -->
<g id="edge2" class="edge">
<title>FertilizerUnitService&#45;&gt;FertilizerUnitModule</title>
<path fill="none" stroke="black" d="M260,-122.11C260,-122.11 260,-140.99 260,-140.99"/>
<polygon fill="black" stroke="black" points="256.5,-140.99 260,-150.99 263.5,-140.99 256.5,-140.99"/>
</g>
<!-- PumpService -->
<g id="node4" class="node">
<title>PumpService</title>
<ellipse fill="#fdb462" stroke="black" cx="87" cy="-104" rx="62.56" ry="18"/>
<text text-anchor="middle" x="87" y="-99.8" font-family="Times,serif" font-size="14.00">PumpService</text>
</g>
<!-- PumpService&#45;&gt;FertilizerUnitModule -->
<g id="edge3" class="edge">
<title>PumpService&#45;&gt;FertilizerUnitModule</title>
<path fill="none" stroke="black" d="M87,-122.11C87,-141.34 87,-169 87,-169 87,-169 182.12,-169 182.12,-169"/>
<polygon fill="black" stroke="black" points="182.12,-172.5 192.12,-169 182.12,-165.5 182.12,-172.5"/>
</g>
</g>
</svg>
