<?xml version="1.0" encoding="UTF-8" standalone="no"?>
<!DOCTYPE svg PUBLIC "-//W3C//DTD SVG 1.1//EN"
 "http://www.w3.org/Graphics/SVG/1.1/DTD/svg11.dtd">
<!-- Generated by graphviz version 2.47.0 (20210316.0004)
 -->
<!-- Title: dependencies Pages: 1 -->
<svg width="532pt" height="284pt"
 viewBox="0.00 0.00 532.00 284.00" xmlns="http://www.w3.org/2000/svg" xmlns:xlink="http://www.w3.org/1999/xlink">
<g id="graph0" class="graph" transform="scale(1 1) rotate(0) translate(4 280)">
<title>dependencies</title>
<polygon fill="white" stroke="transparent" points="-4,4 -4,-280 528,-280 528,4 -4,4"/>
<text text-anchor="start" x="241.01" y="-42.4" font-family="Times-12" font-weight="bold" font-size="14.00">Legend</text>
<polygon fill="#ffffb3" stroke="transparent" points="28,-10 28,-30 48,-30 48,-10 28,-10"/>
<text text-anchor="start" x="51.63" y="-15.4" font-family="Times-12" font-size="14.00"> &#160;Declarations</text>
<polygon fill="#8dd3c7" stroke="transparent" points="141,-10 141,-30 161,-30 161,-10 141,-10"/>
<text text-anchor="start" x="164.73" y="-15.4" font-family="Times-12" font-size="14.00"> &#160;Module</text>
<polygon fill="#80b1d3" stroke="transparent" points="227,-10 227,-30 247,-30 247,-10 227,-10"/>
<text text-anchor="start" x="250.78" y="-15.4" font-family="Times-12" font-size="14.00"> &#160;Bootstrap</text>
<polygon fill="#fdb462" stroke="transparent" points="324,-10 324,-30 344,-30 344,-10 324,-10"/>
<text text-anchor="start" x="347.67" y="-15.4" font-family="Times-12" font-size="14.00"> &#160;Providers</text>
<polygon fill="#fb8072" stroke="transparent" points="420,-10 420,-30 440,-30 440,-10 420,-10"/>
<text text-anchor="start" x="443.73" y="-15.4" font-family="Times-12" font-size="14.00"> &#160;Exports</text>
<g id="clust1" class="cluster">
<title>cluster_ConcentrateModule</title>
<polygon fill="none" stroke="black" stroke-dasharray="1,5" points="8,-70 8,-268 516,-268 516,-70 8,-70"/>
</g>
<g id="clust3" class="cluster">
<title>cluster_ConcentrateModule_imports</title>
<polygon fill="none" stroke="black" points="382,-78 382,-130 508,-130 508,-78 382,-78"/>
</g>
<g id="clust4" class="cluster">
<title>cluster_ConcentrateModule_exports</title>
<polygon fill="none" stroke="black" points="137,-208 137,-260 491,-260 491,-208 137,-208"/>
</g>
<g id="clust6" class="cluster">
<title>cluster_ConcentrateModule_providers</title>
<polygon fill="none" stroke="black" points="16,-78 16,-130 374,-130 374,-78 16,-78"/>
</g>
<!-- SchemasModule -->
<g id="node1" class="node">
<title>SchemasModule</title>
<polygon fill="#8dd3c7" stroke="black" points="499.81,-122 496.81,-126 475.81,-126 472.81,-122 390.19,-122 390.19,-86 499.81,-86 499.81,-122"/>
<text text-anchor="middle" x="445" y="-99.8" font-family="Times,serif" font-size="14.00">SchemasModule</text>
</g>
<!-- ConcentrateModule -->
<g id="node2" class="node">
<title>ConcentrateModule</title>
<polygon fill="#8dd3c7" stroke="black" points="342.69,-187 339.69,-191 318.69,-191 315.69,-187 215.31,-187 215.31,-151 342.69,-151 342.69,-187"/>
<text text-anchor="middle" x="279" y="-164.8" font-family="Times,serif" font-size="14.00">ConcentrateModule</text>
</g>
<!-- SchemasModule&#45;&gt;ConcentrateModule -->
<g id="edge1" class="edge">
<title>SchemasModule&#45;&gt;ConcentrateModule</title>
<path fill="none" stroke="black" d="M436.45,-122.11C436.45,-141.34 436.45,-169 436.45,-169 436.45,-169 353.04,-169 353.04,-169"/>
<polygon fill="black" stroke="black" points="353.04,-165.5 343.04,-169 353.04,-172.5 353.04,-165.5"/>
</g>
<!-- ConcentrateService  -->
<g id="node3" class="node">
<title>ConcentrateService </title>
<polygon fill="#fb8072" stroke="black" points="482.61,-252 353.39,-252 353.39,-216 482.61,-216 482.61,-252"/>
<text text-anchor="middle" x="418" y="-229.8" font-family="Times,serif" font-size="14.00">ConcentrateService </text>
</g>
<!-- ConcentrateModule&#45;&gt;ConcentrateService  -->
<g id="edge2" class="edge">
<title>ConcentrateModule&#45;&gt;ConcentrateService </title>
<path fill="none" stroke="black" stroke-dasharray="5,2" d="M338.99,-187.11C338.99,-206.34 338.99,-234 338.99,-234 338.99,-234 343.12,-234 343.12,-234"/>
<polygon fill="black" stroke="black" points="343.12,-237.5 353.12,-234 343.12,-230.5 343.12,-237.5"/>
</g>
<!-- FertilizerService  -->
<g id="node4" class="node">
<title>FertilizerService </title>
<polygon fill="#fb8072" stroke="black" points="335.29,-252 222.71,-252 222.71,-216 335.29,-216 335.29,-252"/>
<text text-anchor="middle" x="279" y="-229.8" font-family="Times,serif" font-size="14.00">FertilizerService </text>
</g>
<!-- ConcentrateModule&#45;&gt;FertilizerService  -->
<g id="edge3" class="edge">
<title>ConcentrateModule&#45;&gt;FertilizerService </title>
<path fill="none" stroke="black" stroke-dasharray="5,2" d="M279,-187.11C279,-187.11 279,-205.99 279,-205.99"/>
<polygon fill="black" stroke="black" points="275.5,-205.99 279,-215.99 282.5,-205.99 275.5,-205.99"/>
</g>
<!-- Logger  -->
<g id="node5" class="node">
<title>Logger </title>
<polygon fill="#fb8072" stroke="black" points="204.93,-252 145.07,-252 145.07,-216 204.93,-216 204.93,-252"/>
<text text-anchor="middle" x="175" y="-229.8" font-family="Times,serif" font-size="14.00">Logger </text>
</g>
<!-- ConcentrateModule&#45;&gt;Logger  -->
<g id="edge4" class="edge">
<title>ConcentrateModule&#45;&gt;Logger </title>
<path fill="none" stroke="black" stroke-dasharray="5,2" d="M219.01,-187.11C219.01,-206.34 219.01,-234 219.01,-234 219.01,-234 215.08,-234 215.08,-234"/>
<polygon fill="black" stroke="black" points="215.08,-230.5 205.08,-234 215.08,-237.5 215.08,-230.5"/>
</g>
<!-- ConcentrateService -->
<g id="node6" class="node">
<title>ConcentrateService</title>
<ellipse fill="#fdb462" stroke="black" cx="279" cy="-104" rx="86.79" ry="18"/>
<text text-anchor="middle" x="279" y="-99.8" font-family="Times,serif" font-size="14.00">ConcentrateService</text>
</g>
<!-- ConcentrateService&#45;&gt;ConcentrateModule -->
<g id="edge5" class="edge">
<title>ConcentrateService&#45;&gt;ConcentrateModule</title>
<path fill="none" stroke="black" d="M279,-122.11C279,-122.11 279,-140.99 279,-140.99"/>
<polygon fill="black" stroke="black" points="275.5,-140.99 279,-150.99 282.5,-140.99 275.5,-140.99"/>
</g>
<!-- FertilizerService -->
<g id="node7" class="node">
<title>FertilizerService</title>
<ellipse fill="#fdb462" stroke="black" cx="99" cy="-104" rx="75.27" ry="18"/>
<text text-anchor="middle" x="99" y="-99.8" font-family="Times,serif" font-size="14.00">FertilizerService</text>
</g>
<!-- FertilizerService&#45;&gt;ConcentrateModule -->
<g id="edge6" class="edge">
<title>FertilizerService&#45;&gt;ConcentrateModule</title>
<path fill="none" stroke="black" d="M159.71,-114.73C159.71,-133.2 159.71,-169 159.71,-169 159.71,-169 205.16,-169 205.16,-169"/>
<polygon fill="black" stroke="black" points="205.16,-172.5 215.16,-169 205.16,-165.5 205.16,-172.5"/>
</g>
</g>
</svg>
