<?xml version="1.0" encoding="UTF-8" standalone="no"?>
<!DOCTYPE svg PUBLIC "-//W3C//DTD SVG 1.1//EN"
 "http://www.w3.org/Graphics/SVG/1.1/DTD/svg11.dtd">
<!-- Generated by graphviz version 2.47.0 (20210316.0004)
 -->
<!-- Title: dependencies Pages: 1 -->
<svg width="504pt" height="284pt"
 viewBox="0.00 0.00 504.00 284.00" xmlns="http://www.w3.org/2000/svg" xmlns:xlink="http://www.w3.org/1999/xlink">
<g id="graph0" class="graph" transform="scale(1 1) rotate(0) translate(4 280)">
<title>dependencies</title>
<polygon fill="white" stroke="transparent" points="-4,4 -4,-280 500,-280 500,4 -4,4"/>
<text text-anchor="start" x="227.01" y="-42.4" font-family="Times-12" font-weight="bold" font-size="14.00">Legend</text>
<polygon fill="#ffffb3" stroke="transparent" points="14,-10 14,-30 34,-30 34,-10 14,-10"/>
<text text-anchor="start" x="37.63" y="-15.4" font-family="Times-12" font-size="14.00"> &#160;Declarations</text>
<polygon fill="#8dd3c7" stroke="transparent" points="127,-10 127,-30 147,-30 147,-10 127,-10"/>
<text text-anchor="start" x="150.73" y="-15.4" font-family="Times-12" font-size="14.00"> &#160;Module</text>
<polygon fill="#80b1d3" stroke="transparent" points="213,-10 213,-30 233,-30 233,-10 213,-10"/>
<text text-anchor="start" x="236.78" y="-15.4" font-family="Times-12" font-size="14.00"> &#160;Bootstrap</text>
<polygon fill="#fdb462" stroke="transparent" points="310,-10 310,-30 330,-30 330,-10 310,-10"/>
<text text-anchor="start" x="333.67" y="-15.4" font-family="Times-12" font-size="14.00"> &#160;Providers</text>
<polygon fill="#fb8072" stroke="transparent" points="406,-10 406,-30 426,-30 426,-10 406,-10"/>
<text text-anchor="start" x="429.73" y="-15.4" font-family="Times-12" font-size="14.00"> &#160;Exports</text>
<g id="clust1" class="cluster">
<title>cluster_FertilizerModule</title>
<polygon fill="none" stroke="black" stroke-dasharray="1,5" points="8.5,-70 8.5,-268 487.5,-268 487.5,-70 8.5,-70"/>
</g>
<g id="clust3" class="cluster">
<title>cluster_FertilizerModule_imports</title>
<polygon fill="none" stroke="black" points="353.5,-78 353.5,-130 479.5,-130 479.5,-78 353.5,-78"/>
</g>
<g id="clust4" class="cluster">
<title>cluster_FertilizerModule_exports</title>
<polygon fill="none" stroke="black" points="123.5,-208 123.5,-260 455.5,-260 455.5,-208 123.5,-208"/>
</g>
<g id="clust6" class="cluster">
<title>cluster_FertilizerModule_providers</title>
<polygon fill="none" stroke="black" points="16.5,-78 16.5,-130 345.5,-130 345.5,-78 16.5,-78"/>
</g>
<!-- SchemasModule -->
<g id="node1" class="node">
<title>SchemasModule</title>
<polygon fill="#8dd3c7" stroke="black" points="471.31,-122 468.31,-126 447.31,-126 444.31,-122 361.69,-122 361.69,-86 471.31,-86 471.31,-122"/>
<text text-anchor="middle" x="416.5" y="-99.8" font-family="Times,serif" font-size="14.00">SchemasModule</text>
</g>
<!-- FertilizerModule -->
<g id="node2" class="node">
<title>FertilizerModule</title>
<polygon fill="#8dd3c7" stroke="black" points="320.86,-187 317.86,-191 296.86,-191 293.86,-187 210.14,-187 210.14,-151 320.86,-151 320.86,-187"/>
<text text-anchor="middle" x="265.5" y="-164.8" font-family="Times,serif" font-size="14.00">FertilizerModule</text>
</g>
<!-- SchemasModule&#45;&gt;FertilizerModule -->
<g id="edge1" class="edge">
<title>SchemasModule&#45;&gt;FertilizerModule</title>
<path fill="none" stroke="black" d="M404.7,-122.02C404.7,-139.37 404.7,-163 404.7,-163 404.7,-163 330.92,-163 330.92,-163"/>
<polygon fill="black" stroke="black" points="330.92,-159.5 320.92,-163 330.92,-166.5 330.92,-159.5"/>
</g>
<!-- ElementService  -->
<g id="node3" class="node">
<title>ElementService </title>
<polygon fill="#fb8072" stroke="black" points="447.63,-252 339.37,-252 339.37,-216 447.63,-216 447.63,-252"/>
<text text-anchor="middle" x="393.5" y="-229.8" font-family="Times,serif" font-size="14.00">ElementService </text>
</g>
<!-- FertilizerModule&#45;&gt;ElementService  -->
<g id="edge2" class="edge">
<title>FertilizerModule&#45;&gt;ElementService </title>
<path fill="none" stroke="black" stroke-dasharray="5,2" d="M320.86,-175C337.12,-175 350.64,-175 350.64,-175 350.64,-175 350.64,-205.98 350.64,-205.98"/>
<polygon fill="black" stroke="black" points="347.14,-205.98 350.64,-215.98 354.14,-205.98 347.14,-205.98"/>
</g>
<!-- FertilizerService  -->
<g id="node4" class="node">
<title>FertilizerService </title>
<polygon fill="#fb8072" stroke="black" points="321.79,-252 209.21,-252 209.21,-216 321.79,-216 321.79,-252"/>
<text text-anchor="middle" x="265.5" y="-229.8" font-family="Times,serif" font-size="14.00">FertilizerService </text>
</g>
<!-- FertilizerModule&#45;&gt;FertilizerService  -->
<g id="edge3" class="edge">
<title>FertilizerModule&#45;&gt;FertilizerService </title>
<path fill="none" stroke="black" stroke-dasharray="5,2" d="M265.5,-187.11C265.5,-187.11 265.5,-205.99 265.5,-205.99"/>
<polygon fill="black" stroke="black" points="262,-205.99 265.5,-215.99 269,-205.99 262,-205.99"/>
</g>
<!-- Logger  -->
<g id="node5" class="node">
<title>Logger </title>
<polygon fill="#fb8072" stroke="black" points="191.43,-252 131.57,-252 131.57,-216 191.43,-216 191.43,-252"/>
<text text-anchor="middle" x="161.5" y="-229.8" font-family="Times,serif" font-size="14.00">Logger </text>
</g>
<!-- FertilizerModule&#45;&gt;Logger  -->
<g id="edge4" class="edge">
<title>FertilizerModule&#45;&gt;Logger </title>
<path fill="none" stroke="black" stroke-dasharray="5,2" d="M210.13,-175C195.24,-175 183.17,-175 183.17,-175 183.17,-175 183.17,-205.98 183.17,-205.98"/>
<polygon fill="black" stroke="black" points="179.67,-205.98 183.17,-215.98 186.67,-205.98 179.67,-205.98"/>
</g>
<!-- ElementService -->
<g id="node6" class="node">
<title>ElementService</title>
<ellipse fill="#fdb462" stroke="black" cx="265.5" cy="-104" rx="72.35" ry="18"/>
<text text-anchor="middle" x="265.5" y="-99.8" font-family="Times,serif" font-size="14.00">ElementService</text>
</g>
<!-- ElementService&#45;&gt;FertilizerModule -->
<g id="edge5" class="edge">
<title>ElementService&#45;&gt;FertilizerModule</title>
<path fill="none" stroke="black" d="M265.5,-122.11C265.5,-122.11 265.5,-140.99 265.5,-140.99"/>
<polygon fill="black" stroke="black" points="262,-140.99 265.5,-150.99 269,-140.99 262,-140.99"/>
</g>
<!-- FertilizerService -->
<g id="node7" class="node">
<title>FertilizerService</title>
<ellipse fill="#fdb462" stroke="black" cx="99.5" cy="-104" rx="75.27" ry="18"/>
<text text-anchor="middle" x="99.5" y="-99.8" font-family="Times,serif" font-size="14.00">FertilizerService</text>
</g>
<!-- FertilizerService&#45;&gt;FertilizerModule -->
<g id="edge6" class="edge">
<title>FertilizerService&#45;&gt;FertilizerModule</title>
<path fill="none" stroke="black" d="M153.21,-116.8C153.21,-134.15 153.21,-163 153.21,-163 153.21,-163 200.01,-163 200.01,-163"/>
<polygon fill="black" stroke="black" points="200.01,-166.5 210.01,-163 200.01,-159.5 200.01,-166.5"/>
</g>
</g>
</svg>
