<?xml version="1.0" encoding="UTF-8" standalone="no"?>
<!DOCTYPE svg PUBLIC "-//W3C//DTD SVG 1.1//EN"
 "http://www.w3.org/Graphics/SVG/1.1/DTD/svg11.dtd">
<!-- Generated by graphviz version 2.47.0 (20210316.0004)
 -->
<!-- Title: dependencies Pages: 1 -->
<svg width="504pt" height="211pt"
 viewBox="0.00 0.00 504.00 211.00" xmlns="http://www.w3.org/2000/svg" xmlns:xlink="http://www.w3.org/1999/xlink">
<g id="graph0" class="graph" transform="scale(1 1) rotate(0) translate(4 207)">
<title>dependencies</title>
<polygon fill="white" stroke="transparent" points="-4,4 -4,-207 500,-207 500,4 -4,4"/>
<text text-anchor="start" x="227.01" y="-42.4" font-family="Times-12" font-weight="bold" font-size="14.00">Legend</text>
<polygon fill="#ffffb3" stroke="transparent" points="14,-10 14,-30 34,-30 34,-10 14,-10"/>
<text text-anchor="start" x="37.63" y="-15.4" font-family="Times-12" font-size="14.00"> &#160;Declarations</text>
<polygon fill="#8dd3c7" stroke="transparent" points="127,-10 127,-30 147,-30 147,-10 127,-10"/>
<text text-anchor="start" x="150.73" y="-15.4" font-family="Times-12" font-size="14.00"> &#160;Module</text>
<polygon fill="#80b1d3" stroke="transparent" points="213,-10 213,-30 233,-30 233,-10 213,-10"/>
<text text-anchor="start" x="236.78" y="-15.4" font-family="Times-12" font-size="14.00"> &#160;Bootstrap</text>
<polygon fill="#fdb462" stroke="transparent" points="310,-10 310,-30 330,-30 330,-10 310,-10"/>
<text text-anchor="start" x="333.67" y="-15.4" font-family="Times-12" font-size="14.00"> &#160;Providers</text>
<polygon fill="#fb8072" stroke="transparent" points="406,-10 406,-30 426,-30 426,-10 406,-10"/>
<text text-anchor="start" x="429.73" y="-15.4" font-family="Times-12" font-size="14.00"> &#160;Exports</text>
<g id="clust1" class="cluster">
<title>cluster_WaterModule</title>
<polygon fill="none" stroke="black" stroke-dasharray="1,5" points="101,-70 101,-195 395,-195 395,-70 101,-70"/>
</g>
<g id="clust6" class="cluster">
<title>cluster_WaterModule_providers</title>
<polygon fill="none" stroke="black" points="243,-78 243,-130 387,-130 387,-78 243,-78"/>
</g>
<g id="clust3" class="cluster">
<title>cluster_WaterModule_imports</title>
<polygon fill="none" stroke="black" points="109,-78 109,-130 235,-130 235,-78 109,-78"/>
</g>
<!-- SchemasModule -->
<g id="node1" class="node">
<title>SchemasModule</title>
<polygon fill="#8dd3c7" stroke="black" points="226.81,-122 223.81,-126 202.81,-126 199.81,-122 117.19,-122 117.19,-86 226.81,-86 226.81,-122"/>
<text text-anchor="middle" x="172" y="-99.8" font-family="Times,serif" font-size="14.00">SchemasModule</text>
</g>
<!-- WaterModule -->
<g id="node2" class="node">
<title>WaterModule</title>
<polygon fill="#8dd3c7" stroke="black" points="289.75,-187 286.75,-191 265.75,-191 262.75,-187 196.25,-187 196.25,-151 289.75,-151 289.75,-187"/>
<text text-anchor="middle" x="243" y="-164.8" font-family="Times,serif" font-size="14.00">WaterModule</text>
</g>
<!-- SchemasModule&#45;&gt;WaterModule -->
<g id="edge1" class="edge">
<title>SchemasModule&#45;&gt;WaterModule</title>
<path fill="none" stroke="black" d="M211.39,-122.11C211.39,-122.11 211.39,-140.99 211.39,-140.99"/>
<polygon fill="black" stroke="black" points="207.89,-140.99 211.39,-150.99 214.89,-140.99 207.89,-140.99"/>
</g>
<!-- WaterService -->
<g id="node3" class="node">
<title>WaterService</title>
<ellipse fill="#fdb462" stroke="black" cx="315" cy="-104" rx="63.66" ry="18"/>
<text text-anchor="middle" x="315" y="-99.8" font-family="Times,serif" font-size="14.00">WaterService</text>
</g>
<!-- WaterService&#45;&gt;WaterModule -->
<g id="edge2" class="edge">
<title>WaterService&#45;&gt;WaterModule</title>
<path fill="none" stroke="black" d="M270.65,-117.15C270.65,-117.15 270.65,-140.69 270.65,-140.69"/>
<polygon fill="black" stroke="black" points="267.15,-140.69 270.65,-150.69 274.15,-140.69 267.15,-140.69"/>
</g>
</g>
</svg>
