<?xml version="1.0" encoding="UTF-8" standalone="no"?>
<!DOCTYPE svg PUBLIC "-//W3C//DTD SVG 1.1//EN"
 "http://www.w3.org/Graphics/SVG/1.1/DTD/svg11.dtd">
<!-- Generated by graphviz version 2.47.0 (20210316.0004)
 -->
<!-- Title: dependencies Pages: 1 -->
<svg width="722pt" height="211pt"
 viewBox="0.00 0.00 722.00 211.00" xmlns="http://www.w3.org/2000/svg" xmlns:xlink="http://www.w3.org/1999/xlink">
<g id="graph0" class="graph" transform="scale(1 1) rotate(0) translate(4 207)">
<title>dependencies</title>
<polygon fill="white" stroke="transparent" points="-4,4 -4,-207 718,-207 718,4 -4,4"/>
<text text-anchor="start" x="336.01" y="-42.4" font-family="Times-12" font-weight="bold" font-size="14.00">Legend</text>
<polygon fill="#ffffb3" stroke="transparent" points="123,-10 123,-30 143,-30 143,-10 123,-10"/>
<text text-anchor="start" x="146.63" y="-15.4" font-family="Times-12" font-size="14.00"> &#160;Declarations</text>
<polygon fill="#8dd3c7" stroke="transparent" points="236,-10 236,-30 256,-30 256,-10 236,-10"/>
<text text-anchor="start" x="259.73" y="-15.4" font-family="Times-12" font-size="14.00"> &#160;Module</text>
<polygon fill="#80b1d3" stroke="transparent" points="322,-10 322,-30 342,-30 342,-10 322,-10"/>
<text text-anchor="start" x="345.78" y="-15.4" font-family="Times-12" font-size="14.00"> &#160;Bootstrap</text>
<polygon fill="#fdb462" stroke="transparent" points="419,-10 419,-30 439,-30 439,-10 419,-10"/>
<text text-anchor="start" x="442.67" y="-15.4" font-family="Times-12" font-size="14.00"> &#160;Providers</text>
<polygon fill="#fb8072" stroke="transparent" points="515,-10 515,-30 535,-30 535,-10 515,-10"/>
<text text-anchor="start" x="538.73" y="-15.4" font-family="Times-12" font-size="14.00"> &#160;Exports</text>
<g id="clust1" class="cluster">
<title>cluster_SchemasModule</title>
<polygon fill="none" stroke="black" stroke-dasharray="1,5" points="8,-70 8,-195 706,-195 706,-70 8,-70"/>
</g>
<g id="clust4" class="cluster">
<title>cluster_SchemasModule_exports</title>
<polygon fill="none" stroke="black" points="16,-135 16,-187 698,-187 698,-135 16,-135"/>
</g>
<!-- Concentrate  -->
<g id="node1" class="node">
<title>Concentrate </title>
<polygon fill="#fb8072" stroke="black" points="689.64,-179 602.36,-179 602.36,-143 689.64,-143 689.64,-179"/>
<text text-anchor="middle" x="646" y="-156.8" font-family="Times,serif" font-size="14.00">Concentrate </text>
</g>
<!-- Element  -->
<g id="node2" class="node">
<title>Element </title>
<polygon fill="#fb8072" stroke="black" points="584.15,-179 517.85,-179 517.85,-143 584.15,-143 584.15,-179"/>
<text text-anchor="middle" x="551" y="-156.8" font-family="Times,serif" font-size="14.00">Element </text>
</g>
<!-- Fertilizer  -->
<g id="node3" class="node">
<title>Fertilizer </title>
<polygon fill="#fb8072" stroke="black" points="500.31,-179 429.69,-179 429.69,-143 500.31,-143 500.31,-179"/>
<text text-anchor="middle" x="465" y="-156.8" font-family="Times,serif" font-size="14.00">Fertilizer </text>
</g>
<!-- FertilizerUnit  -->
<g id="node4" class="node">
<title>FertilizerUnit </title>
<polygon fill="#fb8072" stroke="black" points="411.7,-179 316.3,-179 316.3,-143 411.7,-143 411.7,-179"/>
<text text-anchor="middle" x="364" y="-156.8" font-family="Times,serif" font-size="14.00">FertilizerUnit </text>
</g>
<!-- Ion  -->
<g id="node5" class="node">
<title>Ion </title>
<polygon fill="#fb8072" stroke="black" points="298,-179 244,-179 244,-143 298,-143 298,-179"/>
<text text-anchor="middle" x="271" y="-156.8" font-family="Times,serif" font-size="14.00">Ion </text>
</g>
<!-- Pump  -->
<g id="node6" class="node">
<title>Pump </title>
<polygon fill="#fb8072" stroke="black" points="226,-179 172,-179 172,-143 226,-143 226,-179"/>
<text text-anchor="middle" x="199" y="-156.8" font-family="Times,serif" font-size="14.00">Pump </text>
</g>
<!-- Recipe  -->
<g id="node7" class="node">
<title>Recipe </title>
<polygon fill="#fb8072" stroke="black" points="154.37,-179 95.63,-179 95.63,-143 154.37,-143 154.37,-179"/>
<text text-anchor="middle" x="125" y="-156.8" font-family="Times,serif" font-size="14.00">Recipe </text>
</g>
<!-- Water  -->
<g id="node8" class="node">
<title>Water </title>
<polygon fill="#fb8072" stroke="black" points="78,-179 24,-179 24,-143 78,-143 78,-179"/>
<text text-anchor="middle" x="51" y="-156.8" font-family="Times,serif" font-size="14.00">Water </text>
</g>
<!-- SchemasModule -->
<g id="node9" class="node">
<title>SchemasModule</title>
<polygon fill="#8dd3c7" stroke="black" points="371.81,-114 368.81,-118 347.81,-118 344.81,-114 262.19,-114 262.19,-78 371.81,-78 371.81,-114"/>
<text text-anchor="middle" x="317" y="-91.8" font-family="Times,serif" font-size="14.00">SchemasModule</text>
</g>
<!-- SchemasModule&#45;&gt;Concentrate  -->
<g id="edge1" class="edge">
<title>SchemasModule&#45;&gt;Concentrate </title>
<path fill="none" stroke="black" stroke-dasharray="5,2" d="M371.7,-87C465.25,-87 646,-87 646,-87 646,-87 646,-132.71 646,-132.71"/>
<polygon fill="black" stroke="black" points="642.5,-132.71 646,-142.71 649.5,-132.71 642.5,-132.71"/>
</g>
<!-- SchemasModule&#45;&gt;Element  -->
<g id="edge2" class="edge">
<title>SchemasModule&#45;&gt;Element </title>
<path fill="none" stroke="black" stroke-dasharray="5,2" d="M371.86,-96C441.03,-96 551,-96 551,-96 551,-96 551,-132.89 551,-132.89"/>
<polygon fill="black" stroke="black" points="547.5,-132.89 551,-142.89 554.5,-132.89 547.5,-132.89"/>
</g>
<!-- SchemasModule&#45;&gt;Fertilizer  -->
<g id="edge3" class="edge">
<title>SchemasModule&#45;&gt;Fertilizer </title>
<path fill="none" stroke="black" stroke-dasharray="5,2" d="M371.69,-105C413.85,-105 465,-105 465,-105 465,-105 465,-132.97 465,-132.97"/>
<polygon fill="black" stroke="black" points="461.5,-132.97 465,-142.97 468.5,-132.97 461.5,-132.97"/>
</g>
<!-- SchemasModule&#45;&gt;FertilizerUnit  -->
<g id="edge4" class="edge">
<title>SchemasModule&#45;&gt;FertilizerUnit </title>
<path fill="none" stroke="black" stroke-dasharray="5,2" d="M343.9,-114.11C343.9,-114.11 343.9,-132.99 343.9,-132.99"/>
<polygon fill="black" stroke="black" points="340.4,-132.99 343.9,-142.99 347.4,-132.99 340.4,-132.99"/>
</g>
<!-- SchemasModule&#45;&gt;Ion  -->
<g id="edge5" class="edge">
<title>SchemasModule&#45;&gt;Ion </title>
<path fill="none" stroke="black" stroke-dasharray="5,2" d="M280.17,-114.11C280.17,-114.11 280.17,-132.99 280.17,-132.99"/>
<polygon fill="black" stroke="black" points="276.67,-132.99 280.17,-142.99 283.67,-132.99 276.67,-132.99"/>
</g>
<!-- SchemasModule&#45;&gt;Pump  -->
<g id="edge6" class="edge">
<title>SchemasModule&#45;&gt;Pump </title>
<path fill="none" stroke="black" stroke-dasharray="5,2" d="M262.15,-105C231.33,-105 199,-105 199,-105 199,-105 199,-132.97 199,-132.97"/>
<polygon fill="black" stroke="black" points="195.5,-132.97 199,-142.97 202.5,-132.97 195.5,-132.97"/>
</g>
<!-- SchemasModule&#45;&gt;Recipe  -->
<g id="edge7" class="edge">
<title>SchemasModule&#45;&gt;Recipe </title>
<path fill="none" stroke="black" stroke-dasharray="5,2" d="M262.24,-96C205.49,-96 125,-96 125,-96 125,-96 125,-132.89 125,-132.89"/>
<polygon fill="black" stroke="black" points="121.5,-132.89 125,-142.89 128.5,-132.89 121.5,-132.89"/>
</g>
<!-- SchemasModule&#45;&gt;Water  -->
<g id="edge8" class="edge">
<title>SchemasModule&#45;&gt;Water </title>
<path fill="none" stroke="black" stroke-dasharray="5,2" d="M262.21,-87C184.34,-87 51,-87 51,-87 51,-87 51,-132.71 51,-132.71"/>
<polygon fill="black" stroke="black" points="47.5,-132.71 51,-142.71 54.5,-132.71 47.5,-132.71"/>
</g>
</g>
</svg>
