<?xml version="1.0" encoding="UTF-8" standalone="no"?>
<!DOCTYPE svg PUBLIC "-//W3C//DTD SVG 1.1//EN"
 "http://www.w3.org/Graphics/SVG/1.1/DTD/svg11.dtd">
<!-- Generated by graphviz version 2.47.0 (20210316.0004)
 -->
<!-- Title: dependencies Pages: 1 -->
<svg width="832pt" height="211pt"
 viewBox="0.00 0.00 832.00 211.00" xmlns="http://www.w3.org/2000/svg" xmlns:xlink="http://www.w3.org/1999/xlink">
<g id="graph0" class="graph" transform="scale(1 1) rotate(0) translate(4 207)">
<title>dependencies</title>
<polygon fill="white" stroke="transparent" points="-4,4 -4,-207 828,-207 828,4 -4,4"/>
<text text-anchor="start" x="391.01" y="-42.4" font-family="Times-12" font-weight="bold" font-size="14.00">Legend</text>
<polygon fill="#ffffb3" stroke="transparent" points="178,-10 178,-30 198,-30 198,-10 178,-10"/>
<text text-anchor="start" x="201.63" y="-15.4" font-family="Times-12" font-size="14.00"> &#160;Declarations</text>
<polygon fill="#8dd3c7" stroke="transparent" points="291,-10 291,-30 311,-30 311,-10 291,-10"/>
<text text-anchor="start" x="314.73" y="-15.4" font-family="Times-12" font-size="14.00"> &#160;Module</text>
<polygon fill="#80b1d3" stroke="transparent" points="377,-10 377,-30 397,-30 397,-10 377,-10"/>
<text text-anchor="start" x="400.78" y="-15.4" font-family="Times-12" font-size="14.00"> &#160;Bootstrap</text>
<polygon fill="#fdb462" stroke="transparent" points="474,-10 474,-30 494,-30 494,-10 474,-10"/>
<text text-anchor="start" x="497.67" y="-15.4" font-family="Times-12" font-size="14.00"> &#160;Providers</text>
<polygon fill="#fb8072" stroke="transparent" points="570,-10 570,-30 590,-30 590,-10 570,-10"/>
<text text-anchor="start" x="593.73" y="-15.4" font-family="Times-12" font-size="14.00"> &#160;Exports</text>
<g id="clust1" class="cluster">
<title>cluster_AppModule</title>
<polygon fill="none" stroke="black" stroke-dasharray="1,5" points="8,-70 8,-195 816,-195 816,-70 8,-70"/>
</g>
<g id="clust3" class="cluster">
<title>cluster_AppModule_imports</title>
<polygon fill="none" stroke="black" points="154,-78 154,-130 808,-130 808,-78 154,-78"/>
</g>
<g id="clust6" class="cluster">
<title>cluster_AppModule_providers</title>
<polygon fill="none" stroke="black" points="16,-78 16,-130 146,-130 146,-78 16,-78"/>
</g>
<!-- ConcentrateModule -->
<g id="node1" class="node">
<title>ConcentrateModule</title>
<polygon fill="#8dd3c7" stroke="black" points="799.69,-122 796.69,-126 775.69,-126 772.69,-122 672.31,-122 672.31,-86 799.69,-86 799.69,-122"/>
<text text-anchor="middle" x="736" y="-99.8" font-family="Times,serif" font-size="14.00">ConcentrateModule</text>
</g>
<!-- AppModule -->
<g id="node6" class="node">
<title>AppModule</title>
<polygon fill="#8dd3c7" stroke="black" points="431.66,-187 428.66,-191 407.66,-191 404.66,-187 348.34,-187 348.34,-151 431.66,-151 431.66,-187"/>
<text text-anchor="middle" x="390" y="-164.8" font-family="Times,serif" font-size="14.00">AppModule</text>
</g>
<!-- ConcentrateModule&#45;&gt;AppModule -->
<g id="edge1" class="edge">
<title>ConcentrateModule&#45;&gt;AppModule</title>
<path fill="none" stroke="black" d="M736,-122.28C736,-143.32 736,-175 736,-175 736,-175 441.74,-175 441.74,-175"/>
<polygon fill="black" stroke="black" points="441.74,-171.5 431.74,-175 441.74,-178.5 441.74,-171.5"/>
</g>
<!-- FertilizerModule -->
<g id="node2" class="node">
<title>FertilizerModule</title>
<polygon fill="#8dd3c7" stroke="black" points="654.36,-122 651.36,-126 630.36,-126 627.36,-122 543.64,-122 543.64,-86 654.36,-86 654.36,-122"/>
<text text-anchor="middle" x="599" y="-99.8" font-family="Times,serif" font-size="14.00">FertilizerModule</text>
</g>
<!-- FertilizerModule&#45;&gt;AppModule -->
<g id="edge2" class="edge">
<title>FertilizerModule&#45;&gt;AppModule</title>
<path fill="none" stroke="black" d="M599,-122.02C599,-139.37 599,-163 599,-163 599,-163 441.79,-163 441.79,-163"/>
<polygon fill="black" stroke="black" points="441.79,-159.5 431.79,-163 441.79,-166.5 441.79,-159.5"/>
</g>
<!-- FertilizerUnitModule -->
<g id="node3" class="node">
<title>FertilizerUnitModule</title>
<polygon fill="#8dd3c7" stroke="black" points="525.75,-122 522.75,-126 501.75,-126 498.75,-122 390.25,-122 390.25,-86 525.75,-86 525.75,-122"/>
<text text-anchor="middle" x="458" y="-99.8" font-family="Times,serif" font-size="14.00">FertilizerUnitModule</text>
</g>
<!-- FertilizerUnitModule&#45;&gt;AppModule -->
<g id="edge3" class="edge">
<title>FertilizerUnitModule&#45;&gt;AppModule</title>
<path fill="none" stroke="black" d="M410.98,-122.11C410.98,-122.11 410.98,-140.99 410.98,-140.99"/>
<polygon fill="black" stroke="black" points="407.48,-140.99 410.98,-150.99 414.48,-140.99 407.48,-140.99"/>
</g>
<!-- RecipeModule -->
<g id="node4" class="node">
<title>RecipeModule</title>
<polygon fill="#8dd3c7" stroke="black" points="372.42,-122 369.42,-126 348.42,-126 345.42,-122 273.58,-122 273.58,-86 372.42,-86 372.42,-122"/>
<text text-anchor="middle" x="323" y="-99.8" font-family="Times,serif" font-size="14.00">RecipeModule</text>
</g>
<!-- RecipeModule&#45;&gt;AppModule -->
<g id="edge4" class="edge">
<title>RecipeModule&#45;&gt;AppModule</title>
<path fill="none" stroke="black" d="M360.19,-122.11C360.19,-122.11 360.19,-140.99 360.19,-140.99"/>
<polygon fill="black" stroke="black" points="356.69,-140.99 360.19,-150.99 363.69,-140.99 356.69,-140.99"/>
</g>
<!-- WaterModule -->
<g id="node5" class="node">
<title>WaterModule</title>
<polygon fill="#8dd3c7" stroke="black" points="255.75,-122 252.75,-126 231.75,-126 228.75,-122 162.25,-122 162.25,-86 255.75,-86 255.75,-122"/>
<text text-anchor="middle" x="209" y="-99.8" font-family="Times,serif" font-size="14.00">WaterModule</text>
</g>
<!-- WaterModule&#45;&gt;AppModule -->
<g id="edge5" class="edge">
<title>WaterModule&#45;&gt;AppModule</title>
<path fill="none" stroke="black" d="M209,-122.02C209,-139.37 209,-163 209,-163 209,-163 338.02,-163 338.02,-163"/>
<polygon fill="black" stroke="black" points="338.02,-166.5 348.02,-163 338.02,-159.5 338.02,-166.5"/>
</g>
<!-- AppService -->
<g id="node7" class="node">
<title>AppService</title>
<ellipse fill="#fdb462" stroke="black" cx="81" cy="-104" rx="56.74" ry="18"/>
<text text-anchor="middle" x="81" y="-99.8" font-family="Times,serif" font-size="14.00">AppService</text>
</g>
<!-- AppService&#45;&gt;AppModule -->
<g id="edge6" class="edge">
<title>AppService&#45;&gt;AppModule</title>
<path fill="none" stroke="black" d="M81,-122.28C81,-143.32 81,-175 81,-175 81,-175 338.33,-175 338.33,-175"/>
<polygon fill="black" stroke="black" points="338.33,-178.5 348.33,-175 338.33,-171.5 338.33,-178.5"/>
</g>
</g>
</svg>
