<?xml version="1.0" encoding="UTF-8" standalone="no"?>
<!DOCTYPE svg PUBLIC "-//W3C//DTD SVG 1.1//EN"
 "http://www.w3.org/Graphics/SVG/1.1/DTD/svg11.dtd">
<!-- Generated by graphviz version 2.47.0 (20210316.0004)
 -->
<!-- Title: dependencies Pages: 1 -->
<svg width="1981pt" height="306pt"
 viewBox="0.00 0.00 1981.00 306.00" xmlns="http://www.w3.org/2000/svg" xmlns:xlink="http://www.w3.org/1999/xlink">
<g id="graph0" class="graph" transform="scale(1 1) rotate(0) translate(4 302)">
<title>dependencies</title>
<polygon fill="white" stroke="transparent" points="-4,4 -4,-302 1977,-302 1977,4 -4,4"/>
<text text-anchor="start" x="965.51" y="-42.4" font-family="Times-12" font-weight="bold" font-size="14.00">Legend</text>
<polygon fill="#ffffb3" stroke="transparent" points="752.5,-10 752.5,-30 772.5,-30 772.5,-10 752.5,-10"/>
<text text-anchor="start" x="776.13" y="-15.4" font-family="Times-12" font-size="14.00"> &#160;Declarations</text>
<polygon fill="#8dd3c7" stroke="transparent" points="865.5,-10 865.5,-30 885.5,-30 885.5,-10 865.5,-10"/>
<text text-anchor="start" x="889.23" y="-15.4" font-family="Times-12" font-size="14.00"> &#160;Module</text>
<polygon fill="#80b1d3" stroke="transparent" points="951.5,-10 951.5,-30 971.5,-30 971.5,-10 951.5,-10"/>
<text text-anchor="start" x="975.28" y="-15.4" font-family="Times-12" font-size="14.00"> &#160;Bootstrap</text>
<polygon fill="#fdb462" stroke="transparent" points="1048.5,-10 1048.5,-30 1068.5,-30 1068.5,-10 1048.5,-10"/>
<text text-anchor="start" x="1072.17" y="-15.4" font-family="Times-12" font-size="14.00"> &#160;Providers</text>
<polygon fill="#fb8072" stroke="transparent" points="1144.5,-10 1144.5,-30 1164.5,-30 1164.5,-10 1144.5,-10"/>
<text text-anchor="start" x="1168.23" y="-15.4" font-family="Times-12" font-size="14.00"> &#160;Exports</text>
<g id="clust1" class="cluster">
<title>cluster_AppModule</title>
<polygon fill="none" stroke="black" stroke-dasharray="1,5" points="452,-146 452,-282 1259,-282 1259,-146 452,-146"/>
</g>
<g id="clust3" class="cluster">
<title>cluster_AppModule_imports</title>
<polygon fill="none" stroke="black" points="598,-154 598,-206 1251,-206 1251,-154 598,-154"/>
</g>
<g id="clust6" class="cluster">
<title>cluster_AppModule_providers</title>
<polygon fill="none" stroke="black" points="460,-154 460,-206 590,-206 590,-154 460,-154"/>
</g>
<g id="clust7" class="cluster">
<title>cluster_ConcentrateModule</title>
<polygon fill="none" stroke="black" stroke-dasharray="1,5" points="719,-70 719,-138 1589,-138 1589,-70 719,-70"/>
</g>
<g id="clust9" class="cluster">
<title>cluster_ConcentrateModule_imports</title>
<polygon fill="none" stroke="black" points="1455,-78 1455,-130 1581,-130 1581,-78 1455,-78"/>
</g>
<g id="clust10" class="cluster">
<title>cluster_ConcentrateModule_exports</title>
<polygon fill="none" stroke="black" points="1093,-78 1093,-130 1447,-130 1447,-78 1093,-78"/>
</g>
<g id="clust12" class="cluster">
<title>cluster_ConcentrateModule_providers</title>
<polygon fill="none" stroke="black" points="727,-78 727,-130 1085,-130 1085,-78 727,-78"/>
</g>
<g id="clust13" class="cluster">
<title>cluster_FertilizerModule</title>
<polygon fill="none" stroke="black" stroke-dasharray="1,5" points="1267,-222 1267,-290 1575,-290 1575,-222 1267,-222"/>
</g>
<g id="clust16" class="cluster">
<title>cluster_FertilizerModule_exports</title>
<polygon fill="none" stroke="black" points="1443,-230 1443,-282 1567,-282 1567,-230 1443,-230"/>
</g>
<g id="clust18" class="cluster">
<title>cluster_FertilizerModule_providers</title>
<polygon fill="none" stroke="black" points="1275,-230 1275,-282 1435,-282 1435,-230 1275,-230"/>
</g>
<g id="clust19" class="cluster">
<title>cluster_FertilizerUnitModule</title>
<polygon fill="none" stroke="black" stroke-dasharray="1,5" points="8,-70 8,-138 369,-138 369,-70 8,-70"/>
</g>
<g id="clust24" class="cluster">
<title>cluster_FertilizerUnitModule_providers</title>
<polygon fill="none" stroke="black" points="16,-78 16,-130 361,-130 361,-78 16,-78"/>
</g>
<g id="clust25" class="cluster">
<title>cluster_RecipeModule</title>
<polygon fill="none" stroke="black" stroke-dasharray="1,5" points="377,-70 377,-138 543,-138 543,-70 377,-70"/>
</g>
<g id="clust30" class="cluster">
<title>cluster_RecipeModule_providers</title>
<polygon fill="none" stroke="black" points="385,-78 385,-130 535,-130 535,-78 385,-78"/>
</g>
<g id="clust31" class="cluster">
<title>cluster_SchemasModule</title>
<polygon fill="none" stroke="black" stroke-dasharray="1,5" points="1267,-146 1267,-214 1965,-214 1965,-146 1267,-146"/>
</g>
<g id="clust34" class="cluster">
<title>cluster_SchemasModule_exports</title>
<polygon fill="none" stroke="black" points="1275,-154 1275,-206 1957,-206 1957,-154 1275,-154"/>
</g>
<g id="clust37" class="cluster">
<title>cluster_WaterModule</title>
<polygon fill="none" stroke="black" stroke-dasharray="1,5" points="551,-70 551,-138 711,-138 711,-70 551,-70"/>
</g>
<g id="clust42" class="cluster">
<title>cluster_WaterModule_providers</title>
<polygon fill="none" stroke="black" points="559,-78 559,-130 703,-130 703,-78 559,-78"/>
</g>
<!-- ConcentrateModule -->
<g id="node1" class="node">
<title>ConcentrateModule</title>
<polygon fill="#8dd3c7" stroke="black" points="1114.69,-198 1111.69,-202 1090.69,-202 1087.69,-198 987.31,-198 987.31,-162 1114.69,-162 1114.69,-198"/>
<text text-anchor="middle" x="1051" y="-175.8" font-family="Times,serif" font-size="14.00">ConcentrateModule</text>
</g>
<!-- AppModule -->
<g id="node6" class="node">
<title>AppModule</title>
<polygon fill="#8dd3c7" stroke="black" points="907.66,-274 904.66,-278 883.66,-278 880.66,-274 824.34,-274 824.34,-238 907.66,-238 907.66,-274"/>
<text text-anchor="middle" x="866" y="-251.8" font-family="Times,serif" font-size="14.00">AppModule</text>
</g>
<!-- ConcentrateModule&#45;&gt;AppModule -->
<g id="edge1" class="edge">
<title>ConcentrateModule&#45;&gt;AppModule</title>
<path fill="none" stroke="black" d="M1051,-198.31C1051,-218.15 1051,-247 1051,-247 1051,-247 917.98,-247 917.98,-247"/>
<polygon fill="black" stroke="black" points="917.98,-243.5 907.98,-247 917.98,-250.5 917.98,-243.5"/>
</g>
<!-- ConcentrateService  -->
<g id="node9" class="node">
<title>ConcentrateService </title>
<polygon fill="#fb8072" stroke="black" points="1230.61,-122 1101.39,-122 1101.39,-86 1230.61,-86 1230.61,-122"/>
<text text-anchor="middle" x="1166" y="-99.8" font-family="Times,serif" font-size="14.00">ConcentrateService </text>
</g>
<!-- ConcentrateModule&#45;&gt;ConcentrateService  -->
<g id="edge8" class="edge">
<title>ConcentrateModule&#45;&gt;ConcentrateService </title>
<path fill="none" stroke="black" stroke-dasharray="5,2" d="M1104.07,-161.99C1104.07,-161.99 1104.07,-132.15 1104.07,-132.15"/>
<polygon fill="black" stroke="black" points="1107.57,-132.15 1104.07,-122.15 1100.57,-132.15 1107.57,-132.15"/>
</g>
<!-- FertilizerService  -->
<g id="node10" class="node">
<title>FertilizerService </title>
<polygon fill="#fb8072" stroke="black" points="1361.29,-122 1248.71,-122 1248.71,-86 1361.29,-86 1361.29,-122"/>
<text text-anchor="middle" x="1305" y="-99.8" font-family="Times,serif" font-size="14.00">FertilizerService </text>
</g>
<!-- ConcentrateModule&#45;&gt;FertilizerService  -->
<g id="edge9" class="edge">
<title>ConcentrateModule&#45;&gt;FertilizerService </title>
<path fill="none" stroke="black" stroke-dasharray="5,2" d="M1109.33,-161.85C1109.33,-148.26 1109.33,-132 1109.33,-132 1109.33,-132 1265.72,-132 1265.72,-132 1265.72,-132 1265.72,-131.02 1265.72,-131.02"/>
<polygon fill="black" stroke="black" points="1269.22,-132.21 1265.72,-122.21 1262.22,-132.21 1269.22,-132.21"/>
</g>
<!-- Logger  -->
<g id="node11" class="node">
<title>Logger </title>
<polygon fill="#fb8072" stroke="black" points="1438.93,-122 1379.07,-122 1379.07,-86 1438.93,-86 1438.93,-122"/>
<text text-anchor="middle" x="1409" y="-99.8" font-family="Times,serif" font-size="14.00">Logger </text>
</g>
<!-- ConcentrateModule&#45;&gt;Logger  -->
<g id="edge10" class="edge">
<title>ConcentrateModule&#45;&gt;Logger </title>
<path fill="none" stroke="black" stroke-dasharray="5,2" d="M1111.96,-161.96C1111.96,-149.44 1111.96,-135 1111.96,-135 1111.96,-135 1384.89,-135 1384.89,-135 1384.89,-135 1384.89,-132.03 1384.89,-132.03"/>
<polygon fill="black" stroke="black" points="1388.39,-132.03 1384.89,-122.03 1381.39,-132.03 1388.39,-132.03"/>
</g>
<!-- FertilizerModule -->
<g id="node2" class="node">
<title>FertilizerModule</title>
<polygon fill="#8dd3c7" stroke="black" points="1243.36,-198 1240.36,-202 1219.36,-202 1216.36,-198 1132.64,-198 1132.64,-162 1243.36,-162 1243.36,-198"/>
<text text-anchor="middle" x="1188" y="-175.8" font-family="Times,serif" font-size="14.00">FertilizerModule</text>
</g>
<!-- FertilizerModule&#45;&gt;AppModule -->
<g id="edge2" class="edge">
<title>FertilizerModule&#45;&gt;AppModule</title>
<path fill="none" stroke="black" d="M1160.29,-198.01C1160.29,-220.49 1160.29,-256 1160.29,-256 1160.29,-256 917.85,-256 917.85,-256"/>
<polygon fill="black" stroke="black" points="917.85,-252.5 907.85,-256 917.85,-259.5 917.85,-252.5"/>
</g>
<!-- FertilizerModule&#45;&gt;FertilizerService  -->
<g id="edge15" class="edge">
<title>FertilizerModule&#45;&gt;FertilizerService </title>
<path fill="none" stroke="black" stroke-dasharray="5,2" d="M1236.99,-161.99C1236.99,-139.51 1236.99,-104 1236.99,-104 1236.99,-104 1238.53,-104 1238.53,-104"/>
<polygon fill="black" stroke="black" points="1238.53,-107.5 1248.53,-104 1238.53,-100.5 1238.53,-107.5"/>
</g>
<!-- FertilizerModule&#45;&gt;Logger  -->
<g id="edge16" class="edge">
<title>FertilizerModule&#45;&gt;Logger </title>
<path fill="none" stroke="black" stroke-dasharray="5,2" d="M1233.78,-161.87C1233.78,-151.29 1233.78,-140 1233.78,-140 1233.78,-140 1390.74,-140 1390.74,-140 1390.74,-140 1390.74,-132.42 1390.74,-132.42"/>
<polygon fill="black" stroke="black" points="1394.24,-132.42 1390.74,-122.42 1387.24,-132.42 1394.24,-132.42"/>
</g>
<!-- ElementService  -->
<g id="node14" class="node">
<title>ElementService </title>
<polygon fill="#fb8072" stroke="black" points="1559.13,-274 1450.87,-274 1450.87,-238 1559.13,-238 1559.13,-274"/>
<text text-anchor="middle" x="1505" y="-251.8" font-family="Times,serif" font-size="14.00">ElementService </text>
</g>
<!-- FertilizerModule&#45;&gt;ElementService  -->
<g id="edge14" class="edge">
<title>FertilizerModule&#45;&gt;ElementService </title>
<path fill="none" stroke="black" stroke-dasharray="5,2" d="M1188,-198.11C1188,-207.9 1188,-218 1188,-218 1188,-218 1459.17,-218 1459.17,-218 1459.17,-218 1459.17,-227.89 1459.17,-227.89"/>
<polygon fill="black" stroke="black" points="1455.67,-227.89 1459.17,-237.89 1462.67,-227.89 1455.67,-227.89"/>
</g>
<!-- FertilizerUnitModule -->
<g id="node3" class="node">
<title>FertilizerUnitModule</title>
<polygon fill="#8dd3c7" stroke="black" points="741.75,-198 738.75,-202 717.75,-202 714.75,-198 606.25,-198 606.25,-162 741.75,-162 741.75,-198"/>
<text text-anchor="middle" x="674" y="-175.8" font-family="Times,serif" font-size="14.00">FertilizerUnitModule</text>
</g>
<!-- FertilizerUnitModule&#45;&gt;AppModule -->
<g id="edge3" class="edge">
<title>FertilizerUnitModule&#45;&gt;AppModule</title>
<path fill="none" stroke="black" d="M674,-198.03C674,-218.77 674,-250 674,-250 674,-250 814.34,-250 814.34,-250"/>
<polygon fill="black" stroke="black" points="814.34,-253.5 824.34,-250 814.34,-246.5 814.34,-253.5"/>
</g>
<!-- RecipeModule -->
<g id="node4" class="node">
<title>RecipeModule</title>
<polygon fill="#8dd3c7" stroke="black" points="858.42,-198 855.42,-202 834.42,-202 831.42,-198 759.58,-198 759.58,-162 858.42,-162 858.42,-198"/>
<text text-anchor="middle" x="809" y="-175.8" font-family="Times,serif" font-size="14.00">RecipeModule</text>
</g>
<!-- RecipeModule&#45;&gt;AppModule -->
<g id="edge4" class="edge">
<title>RecipeModule&#45;&gt;AppModule</title>
<path fill="none" stroke="black" d="M841.19,-198.01C841.19,-198.01 841.19,-227.85 841.19,-227.85"/>
<polygon fill="black" stroke="black" points="837.69,-227.85 841.19,-237.85 844.69,-227.85 837.69,-227.85"/>
</g>
<!-- WaterModule -->
<g id="node5" class="node">
<title>WaterModule</title>
<polygon fill="#8dd3c7" stroke="black" points="969.75,-198 966.75,-202 945.75,-202 942.75,-198 876.25,-198 876.25,-162 969.75,-162 969.75,-198"/>
<text text-anchor="middle" x="923" y="-175.8" font-family="Times,serif" font-size="14.00">WaterModule</text>
</g>
<!-- WaterModule&#45;&gt;AppModule -->
<g id="edge5" class="edge">
<title>WaterModule&#45;&gt;AppModule</title>
<path fill="none" stroke="black" d="M891.98,-198.01C891.98,-198.01 891.98,-227.85 891.98,-227.85"/>
<polygon fill="black" stroke="black" points="888.48,-227.85 891.98,-237.85 895.48,-227.85 888.48,-227.85"/>
</g>
<!-- AppService -->
<g id="node7" class="node">
<title>AppService</title>
<ellipse fill="#fdb462" stroke="black" cx="525" cy="-180" rx="56.74" ry="18"/>
<text text-anchor="middle" x="525" y="-175.8" font-family="Times,serif" font-size="14.00">AppService</text>
</g>
<!-- AppService&#45;&gt;AppModule -->
<g id="edge6" class="edge">
<title>AppService&#45;&gt;AppModule</title>
<path fill="none" stroke="black" d="M525,-198.2C525,-222.36 525,-262 525,-262 525,-262 814.19,-262 814.19,-262"/>
<polygon fill="black" stroke="black" points="814.19,-265.5 824.19,-262 814.19,-258.5 814.19,-265.5"/>
</g>
<!-- SchemasModule -->
<g id="node8" class="node">
<title>SchemasModule</title>
<polygon fill="#8dd3c7" stroke="black" points="1572.81,-122 1569.81,-126 1548.81,-126 1545.81,-122 1463.19,-122 1463.19,-86 1572.81,-86 1572.81,-122"/>
<text text-anchor="middle" x="1518" y="-99.8" font-family="Times,serif" font-size="14.00">SchemasModule</text>
</g>
<!-- SchemasModule&#45;&gt;ConcentrateModule -->
<g id="edge7" class="edge">
<title>SchemasModule&#45;&gt;ConcentrateModule</title>
<path fill="none" stroke="black" d="M1476.16,-122.04C1476.16,-129.75 1476.16,-137 1476.16,-137 1476.16,-137 1106.7,-137 1106.7,-137 1106.7,-137 1106.7,-151.51 1106.7,-151.51"/>
<polygon fill="black" stroke="black" points="1103.2,-151.51 1106.7,-161.51 1110.2,-151.51 1103.2,-151.51"/>
</g>
<!-- SchemasModule&#45;&gt;FertilizerModule -->
<g id="edge13" class="edge">
<title>SchemasModule&#45;&gt;FertilizerModule</title>
<path fill="none" stroke="black" d="M1478.35,-122.11C1478.35,-131.9 1478.35,-142 1478.35,-142 1478.35,-142 1240.21,-142 1240.21,-142 1240.21,-142 1240.21,-151.89 1240.21,-151.89"/>
<polygon fill="black" stroke="black" points="1236.71,-151.89 1240.21,-161.89 1243.71,-151.89 1236.71,-151.89"/>
</g>
<!-- SchemasModule&#45;&gt;FertilizerUnitModule -->
<g id="edge19" class="edge">
<title>SchemasModule&#45;&gt;FertilizerUnitModule</title>
<path fill="none" stroke="black" d="M1469.59,-122.08C1469.59,-123.85 1469.59,-125 1469.59,-125 1469.59,-125 714.97,-125 714.97,-125 714.97,-125 714.97,-151.99 714.97,-151.99"/>
<polygon fill="black" stroke="black" points="711.47,-151.99 714.97,-161.99 718.47,-151.99 711.47,-151.99"/>
</g>
<!-- SchemasModule&#45;&gt;RecipeModule -->
<g id="edge22" class="edge">
<title>SchemasModule&#45;&gt;RecipeModule</title>
<path fill="none" stroke="black" d="M1471.78,-122.12C1471.78,-124.97 1471.78,-127 1471.78,-127 1471.78,-127 825.4,-127 825.4,-127 825.4,-127 825.4,-151.76 825.4,-151.76"/>
<polygon fill="black" stroke="black" points="821.9,-151.76 825.4,-161.76 828.9,-151.76 821.9,-151.76"/>
</g>
<!-- SchemasModule&#45;&gt;WaterModule -->
<g id="edge32" class="edge">
<title>SchemasModule&#45;&gt;WaterModule</title>
<path fill="none" stroke="black" d="M1473.97,-122.06C1473.97,-126.49 1473.97,-130 1473.97,-130 1473.97,-130 948.24,-130 948.24,-130 948.24,-130 948.24,-151.95 948.24,-151.95"/>
<polygon fill="black" stroke="black" points="944.74,-151.95 948.24,-161.95 951.74,-151.95 944.74,-151.95"/>
</g>
<!-- Concentrate  -->
<g id="node19" class="node">
<title>Concentrate </title>
<polygon fill="#fb8072" stroke="black" points="1656.64,-198 1569.36,-198 1569.36,-162 1656.64,-162 1656.64,-198"/>
<text text-anchor="middle" x="1613" y="-175.8" font-family="Times,serif" font-size="14.00">Concentrate </text>
</g>
<!-- SchemasModule&#45;&gt;Concentrate  -->
<g id="edge24" class="edge">
<title>SchemasModule&#45;&gt;Concentrate </title>
<path fill="none" stroke="black" stroke-dasharray="5,2" d="M1564.25,-122.01C1564.25,-144.49 1564.25,-180 1564.25,-180 1564.25,-180 1564.73,-180 1564.73,-180"/>
<polygon fill="black" stroke="black" points="1559.1,-183.5 1569.1,-180 1559.1,-176.5 1559.1,-183.5"/>
</g>
<!-- Element  -->
<g id="node20" class="node">
<title>Element </title>
<polygon fill="#fb8072" stroke="black" points="1551.15,-198 1484.85,-198 1484.85,-162 1551.15,-162 1551.15,-198"/>
<text text-anchor="middle" x="1518" y="-175.8" font-family="Times,serif" font-size="14.00">Element </text>
</g>
<!-- SchemasModule&#45;&gt;Element  -->
<g id="edge25" class="edge">
<title>SchemasModule&#45;&gt;Element </title>
<path fill="none" stroke="black" stroke-dasharray="5,2" d="M1518,-122.01C1518,-122.01 1518,-151.85 1518,-151.85"/>
<polygon fill="black" stroke="black" points="1514.5,-151.85 1518,-161.85 1521.5,-151.85 1514.5,-151.85"/>
</g>
<!-- Fertilizer  -->
<g id="node21" class="node">
<title>Fertilizer </title>
<polygon fill="#fb8072" stroke="black" points="1467.31,-198 1396.69,-198 1396.69,-162 1467.31,-162 1467.31,-198"/>
<text text-anchor="middle" x="1432" y="-175.8" font-family="Times,serif" font-size="14.00">Fertilizer </text>
</g>
<!-- SchemasModule&#45;&gt;Fertilizer  -->
<g id="edge26" class="edge">
<title>SchemasModule&#45;&gt;Fertilizer </title>
<path fill="none" stroke="black" stroke-dasharray="5,2" d="M1482.73,-122.01C1482.73,-144.49 1482.73,-180 1482.73,-180 1482.73,-180 1477.51,-180 1477.51,-180"/>
<polygon fill="black" stroke="black" points="1477.51,-176.5 1467.51,-180 1477.51,-183.5 1477.51,-176.5"/>
</g>
<!-- FertilizerUnit  -->
<g id="node22" class="node">
<title>FertilizerUnit </title>
<polygon fill="#fb8072" stroke="black" points="1378.7,-198 1283.3,-198 1283.3,-162 1378.7,-162 1378.7,-198"/>
<text text-anchor="middle" x="1331" y="-175.8" font-family="Times,serif" font-size="14.00">FertilizerUnit </text>
</g>
<!-- SchemasModule&#45;&gt;FertilizerUnit  -->
<g id="edge27" class="edge">
<title>SchemasModule&#45;&gt;FertilizerUnit </title>
<path fill="none" stroke="black" stroke-dasharray="5,2" d="M1480.54,-122.1C1480.54,-133.09 1480.54,-145 1480.54,-145 1480.54,-145 1370.12,-145 1370.12,-145 1370.12,-145 1370.12,-151.68 1370.12,-151.68"/>
<polygon fill="black" stroke="black" points="1366.62,-151.68 1370.12,-161.68 1373.62,-151.68 1366.62,-151.68"/>
</g>
<!-- Ion  -->
<g id="node23" class="node">
<title>Ion </title>
<polygon fill="#fb8072" stroke="black" points="1949,-198 1895,-198 1895,-162 1949,-162 1949,-198"/>
<text text-anchor="middle" x="1922" y="-175.8" font-family="Times,serif" font-size="14.00">Ion </text>
</g>
<!-- SchemasModule&#45;&gt;Ion  -->
<g id="edge28" class="edge">
<title>SchemasModule&#45;&gt;Ion </title>
<path fill="none" stroke="black" stroke-dasharray="5,2" d="M1572.91,-94C1683.37,-94 1922,-94 1922,-94 1922,-94 1922,-151.76 1922,-151.76"/>
<polygon fill="black" stroke="black" points="1918.5,-151.76 1922,-161.76 1925.5,-151.76 1918.5,-151.76"/>
</g>
<!-- Pump  -->
<g id="node24" class="node">
<title>Pump </title>
<polygon fill="#fb8072" stroke="black" points="1877,-198 1823,-198 1823,-162 1877,-162 1877,-198"/>
<text text-anchor="middle" x="1850" y="-175.8" font-family="Times,serif" font-size="14.00">Pump </text>
</g>
<!-- SchemasModule&#45;&gt;Pump  -->
<g id="edge29" class="edge">
<title>SchemasModule&#45;&gt;Pump </title>
<path fill="none" stroke="black" stroke-dasharray="5,2" d="M1572.82,-101C1667.12,-101 1850,-101 1850,-101 1850,-101 1850,-151.68 1850,-151.68"/>
<polygon fill="black" stroke="black" points="1846.5,-151.68 1850,-161.68 1853.5,-151.68 1846.5,-151.68"/>
</g>
<!-- Recipe  -->
<g id="node25" class="node">
<title>Recipe </title>
<polygon fill="#fb8072" stroke="black" points="1805.37,-198 1746.63,-198 1746.63,-162 1805.37,-162 1805.37,-198"/>
<text text-anchor="middle" x="1776" y="-175.8" font-family="Times,serif" font-size="14.00">Recipe </text>
</g>
<!-- SchemasModule&#45;&gt;Recipe  -->
<g id="edge30" class="edge">
<title>SchemasModule&#45;&gt;Recipe </title>
<path fill="none" stroke="black" stroke-dasharray="5,2" d="M1572.72,-108C1648.45,-108 1776,-108 1776,-108 1776,-108 1776,-151.83 1776,-151.83"/>
<polygon fill="black" stroke="black" points="1772.5,-151.83 1776,-161.83 1779.5,-151.83 1772.5,-151.83"/>
</g>
<!-- Water  -->
<g id="node26" class="node">
<title>Water </title>
<polygon fill="#fb8072" stroke="black" points="1729,-198 1675,-198 1675,-162 1729,-162 1729,-198"/>
<text text-anchor="middle" x="1702" y="-175.8" font-family="Times,serif" font-size="14.00">Water </text>
</g>
<!-- SchemasModule&#45;&gt;Water  -->
<g id="edge31" class="edge">
<title>SchemasModule&#45;&gt;Water </title>
<path fill="none" stroke="black" stroke-dasharray="5,2" d="M1572.71,-115C1626.95,-115 1702,-115 1702,-115 1702,-115 1702,-151.89 1702,-151.89"/>
<polygon fill="black" stroke="black" points="1698.5,-151.89 1702,-161.89 1705.5,-151.89 1698.5,-151.89"/>
</g>
<!-- ConcentrateService -->
<g id="node12" class="node">
<title>ConcentrateService</title>
<ellipse fill="#fdb462" stroke="black" cx="822" cy="-104" rx="86.79" ry="18"/>
<text text-anchor="middle" x="822" y="-99.8" font-family="Times,serif" font-size="14.00">ConcentrateService</text>
</g>
<!-- ConcentrateService&#45;&gt;ConcentrateModule -->
<g id="edge11" class="edge">
<title>ConcentrateService&#45;&gt;ConcentrateModule</title>
<path fill="none" stroke="black" d="M897.81,-112.87C897.81,-126.24 897.81,-150 897.81,-150 897.81,-150 1009.9,-150 1009.9,-150 1009.9,-150 1009.9,-151.86 1009.9,-151.86"/>
<polygon fill="black" stroke="black" points="1006.4,-151.86 1009.9,-161.86 1013.4,-151.86 1006.4,-151.86"/>
</g>
<!-- FertilizerService -->
<g id="node13" class="node">
<title>FertilizerService</title>
<ellipse fill="#fdb462" stroke="black" cx="1002" cy="-104" rx="75.27" ry="18"/>
<text text-anchor="middle" x="1002" y="-99.8" font-family="Times,serif" font-size="14.00">FertilizerService</text>
</g>
<!-- FertilizerService&#45;&gt;ConcentrateModule -->
<g id="edge12" class="edge">
<title>FertilizerService&#45;&gt;ConcentrateModule</title>
<path fill="none" stroke="black" d="M1032.4,-120.49C1032.4,-120.49 1032.4,-151.95 1032.4,-151.95"/>
<polygon fill="black" stroke="black" points="1028.9,-151.95 1032.4,-161.95 1035.9,-151.95 1028.9,-151.95"/>
</g>
<!-- FertilizerService&#45;&gt;FertilizerModule -->
<g id="edge18" class="edge">
<title>FertilizerService&#45;&gt;FertilizerModule</title>
<path fill="none" stroke="black" d="M1054.89,-117.14C1054.89,-129.78 1054.89,-147 1054.89,-147 1054.89,-147 1181.56,-147 1181.56,-147 1181.56,-147 1181.56,-151.96 1181.56,-151.96"/>
<polygon fill="black" stroke="black" points="1178.06,-151.96 1181.56,-161.96 1185.06,-151.96 1178.06,-151.96"/>
</g>
<!-- ElementService -->
<g id="node15" class="node">
<title>ElementService</title>
<ellipse fill="#fdb462" stroke="black" cx="1355" cy="-256" rx="72.35" ry="18"/>
<text text-anchor="middle" x="1355" y="-251.8" font-family="Times,serif" font-size="14.00">ElementService</text>
</g>
<!-- ElementService&#45;&gt;FertilizerModule -->
<g id="edge17" class="edge">
<title>ElementService&#45;&gt;FertilizerModule</title>
<path fill="none" stroke="black" d="M1292.28,-265C1255.31,-265 1215.71,-265 1215.71,-265 1215.71,-265 1215.71,-208.03 1215.71,-208.03"/>
<polygon fill="black" stroke="black" points="1219.22,-208.03 1215.71,-198.03 1212.22,-208.03 1219.22,-208.03"/>
</g>
<!-- FertilizerUnitService -->
<g id="node16" class="node">
<title>FertilizerUnitService</title>
<ellipse fill="#fdb462" stroke="black" cx="260" cy="-104" rx="92.6" ry="18"/>
<text text-anchor="middle" x="260" y="-99.8" font-family="Times,serif" font-size="14.00">FertilizerUnitService</text>
</g>
<!-- FertilizerUnitService&#45;&gt;FertilizerUnitModule -->
<g id="edge20" class="edge">
<title>FertilizerUnitService&#45;&gt;FertilizerUnitModule</title>
<path fill="none" stroke="black" d="M260,-122.24C260,-137.57 260,-157 260,-157 260,-157 650.35,-157 650.35,-157 650.35,-157 650.35,-157.49 650.35,-157.49"/>
<polygon fill="black" stroke="black" points="646.85,-151.88 650.35,-161.88 653.85,-151.88 646.85,-151.88"/>
</g>
<!-- PumpService -->
<g id="node17" class="node">
<title>PumpService</title>
<ellipse fill="#fdb462" stroke="black" cx="87" cy="-104" rx="62.56" ry="18"/>
<text text-anchor="middle" x="87" y="-99.8" font-family="Times,serif" font-size="14.00">PumpService</text>
</g>
<!-- PumpService&#45;&gt;FertilizerUnitModule -->
<g id="edge21" class="edge">
<title>PumpService&#45;&gt;FertilizerUnitModule</title>
<path fill="none" stroke="black" d="M87,-122.03C87,-138.4 87,-160 87,-160 87,-160 628.24,-160 628.24,-160 628.24,-160 628.24,-160.18 628.24,-160.18"/>
<polygon fill="black" stroke="black" points="624.74,-151.85 628.24,-161.85 631.74,-151.85 624.74,-151.85"/>
</g>
<!-- RecipeService -->
<g id="node18" class="node">
<title>RecipeService</title>
<ellipse fill="#fdb462" stroke="black" cx="460" cy="-104" rx="66.61" ry="18"/>
<text text-anchor="middle" x="460" y="-99.8" font-family="Times,serif" font-size="14.00">RecipeService</text>
</g>
<!-- RecipeService&#45;&gt;RecipeModule -->
<g id="edge23" class="edge">
<title>RecipeService&#45;&gt;RecipeModule</title>
<path fill="none" stroke="black" d="M497.59,-119.03C497.59,-134.07 497.59,-155 497.59,-155 497.59,-155 792.6,-155 792.6,-155 792.6,-155 792.6,-155.68 792.6,-155.68"/>
<polygon fill="black" stroke="black" points="789.1,-151.83 792.6,-161.83 796.1,-151.83 789.1,-151.83"/>
</g>
<!-- WaterService -->
<g id="node27" class="node">
<title>WaterService</title>
<ellipse fill="#fdb462" stroke="black" cx="631" cy="-104" rx="63.66" ry="18"/>
<text text-anchor="middle" x="631" y="-99.8" font-family="Times,serif" font-size="14.00">WaterService</text>
</g>
<!-- WaterService&#45;&gt;WaterModule -->
<g id="edge33" class="edge">
<title>WaterService&#45;&gt;WaterModule</title>
<path fill="none" stroke="black" d="M672.47,-117.88C672.47,-132.06 672.47,-152 672.47,-152 672.47,-152 886.97,-152 886.97,-152 886.97,-152 886.97,-152.98 886.97,-152.98"/>
<polygon fill="black" stroke="black" points="883.47,-151.79 886.97,-161.79 890.47,-151.79 883.47,-151.79"/>
</g>
</g>
</svg>
